#!OML:ASF I:\Actors\actors\Patient Classification 2\Patient 1\Session 1\actor1.ASF
:FULLY-SPECIFIED
:DEGREES
194
root -0.349777 18.9142 3.92376 15.4891 -4.09257 0.802664
lowerback 37.9305 -4.19109 0.669621
upperback 11.2184 -5.05086 -1.50113
thorax -6.31498 -2.34332 -0.0476991
lowerneck -25.9609 4.04988 4.64943
upperneck 19.0841 4.34408 -2.14382
head 10.5366 2.05718 -0.818214
rclavicle 5.56597e-015 1.59028e-014
rhumerus -15.7305 28.5616 -84.892
rradius 85.1632
rwrist -55.738
rhand -32.7037 -36.4152
rfingers 7.12502
rthumb -5.92814 293.688
lclavicle 5.56597e-015 1.59028e-014
lhumerus 10.3524 -4.64517 96.0483
lradius 65.9688
lwrist 67.0595
lhand -37.0231 -50.1234
lfingers 7.12502
lthumb -10.097 -20.3856
rfemur 0 0 0
rtibia 0
rfoot 0 0
rtoes 0
lfemur -27.5889 4.35054 -16.1777
ltibia 22.4922
lfoot -12.3156 8.23623
ltoes -54.8479
195
root -0.360936 18.9137 3.92898 15.0415 -3.83541 0.738451
lowerback 37.9474 -4.09323 1.03752
upperback 10.9122 -4.79685 -1.42202
thorax -6.67204 -2.21904 -0.235506
lowerneck -25.7643 3.70168 4.25746
upperneck 19.6395 3.91758 -1.70179
head 10.6719 1.8911 -0.66691
rclavicle 5.56597e-014 -3.18055e-015
rhumerus -15.0334 28.5422 -85.7514
rradius 84.5679
rwrist -54.6505
rhand -32.37 -35.2453
rfingers 7.12502
rthumb -5.60599 294.849
lclavicle 5.56597e-014 -3.18055e-015
lhumerus 9.42823 -3.61632 95.7678
lradius 68.2844
lwrist 68.2751
lhand -37.5633 -50.2746
lfingers 7.12502
lthumb -10.6181 -20.5629
rfemur 0 0 0
rtibia 0
rfoot 0 0
rtoes 0
lfemur -27.1013 4.4384 -16.0743
ltibia 22.461
lfoot -12.2237 7.92291
ltoes -54.9315
196
root -0.369661 18.9117 3.93911 14.6643 -3.64277 0.687275
lowerback 37.7207 -3.95304 1.50725
upperback 10.5845 -4.46691 -1.41242
thorax -6.98052 -2.06092 -0.588583
lowerneck -25.5683 3.27375 3.86616
upperneck 20.3424 3.35463 -1.17685
head 10.8614 1.67457 -0.506579
rclavicle -5.32743e-014 1.74931e-014
rhumerus -14.2025 28.6042 -86.6589
rradius 84.0064
rwrist -53.4777
rhand -32.2665 -34.713
rfingers 7.12502
rthumb -5.50603 295.379
lclavicle -5.32743e-014 1.74931e-014
lhumerus 8.40696 -2.35734 95.3971
lradius 70.8823
lwrist 69.7002
lhand -37.8757 -49.2174
lfingers 7.12502
lthumb -10.9194 -19.5213
rfemur 0 0 0
rtibia 0
rfoot 0 0
rtoes 0
lfemur -26.6411 4.14199 -15.9072
ltibia 22.4058
lfoot -12.2795 8.02584
ltoes -54.94
197
root -0.384215 18.909 3.9465 14.2277 -3.27016 0.68473
lowerback 37.5094 -3.84326 2.0679
upperback 10.2443 -4.14195 -1.4368
thorax -7.31004 -1.90589 -1.02394
lowerneck -25.3669 2.82045 3.65151
upperneck 21.142 2.71574 -0.778295
head 11.0966 1.42339 -0.432292
rclavicle -1.59028e-015 -7.95139e-016
rhumerus -13.214 28.7624 -87.6466
rradius 83.543
rwrist -52.6574
rhand -32.0712 -34.3175
rfingers 7.12502
rthumb -5.31748 295.769
lclavicle -1.59028e-015 -7.95139e-016
lhumerus 7.39799 -0.901835 94.8624
lradius 73.6614
lwrist 71.1594
lhand -36.852 -52.2894
lfingers 7.12502
lthumb -9.93184 -22.5437
rfemur 0 0 0
rtibia 0
rfoot 0 0
rtoes 0
lfemur -26.1514 3.74116 -15.7418
ltibia 22.341
lfoot -12.2736 8.11028
ltoes -55.0871
198
root -0.405287 18.9066 3.95437 13.7674 -2.7687 0.686967
lowerback 37.1556 -3.68637 2.57036
upperback 9.97132 -3.7724 -1.36389
thorax -7.49768 -1.73537 -1.35325
lowerneck -25.1983 2.33166 3.41779
upperneck 21.9514 2.04843 -0.462195
head 11.3481 1.14945 -0.389341
rclavicle 1.82882e-014 1.39149e-014
rhumerus -12.0026 29.1407 -88.5564
rradius 83.2778
rwrist -52.3604
rhand -32.0073 -34.3809
rfingers 7.12502
rthumb -5.25576 295.704
lclavicle 1.82882e-014 1.39149e-014
lhumerus 6.46261 0.779633 94.2375
lradius 76.6347
lwrist 72.5664
lhand -37.8994 -49.7816
lfingers 7.12502
lthumb -10.9422 -20.0867
rfemur 0 0 0
rtibia 0
rfoot 0 0
rtoes 0
lfemur -25.6523 3.39327 -15.5672
ltibia 22.2776
lfoot -12.2246 7.98554
ltoes -55.1487
199
root -0.429722 18.903 3.96443 13.2385 -2.41539 0.61449
lowerback 36.9529 -3.41347 3.06624
upperback 9.62326 -3.26022 -1.29046
thorax -7.80592 -1.50235 -1.72766
lowerneck -24.9457 1.77359 3.17681
upperneck 22.7922 1.27519 -0.118007
head 11.6006 0.834324 -0.353311
rclavicle -1.86858e-014 1.70955e-014
rhumerus -10.8144 29.6942 -89.5856
rradius 83.1829
rwrist -51.9983
rhand -32.7253 -35.1366
rfingers 7.12502
rthumb -5.94902 294.967
lclavicle -1.86858e-014 1.70955e-014
lhumerus 5.23594 2.54404 93.3852
lradius 79.97
lwrist 73.9094
lhand -38.0373 -50.5094
lfingers 7.12502
lthumb -11.0752 -20.8216
rfemur 0 0 0
rtibia 0
rfoot 0 0
rtoes 0
lfemur -25.032 3.14184 -15.3206
ltibia 22.2073
lfoot -12.2616 7.87352
ltoes -55.0209
200
root -0.457335 18.8978 3.97582 12.6293 -2.23398 0.514191
lowerback 36.9142 -3.04495 3.51261
upperback 9.24256 -2.64566 -1.25611
thorax -8.19414 -1.22595 -2.15493
lowerneck -24.5983 1.18208 2.96813
upperneck 23.6059 0.445979 0.197569
head 11.8318 0.496176 -0.343122
rclavicle 2.98177e-015 -4.57205e-015
rhumerus -9.55905 30.4653 -90.7124
rradius 83.2562
rwrist -51.4864
rhand -32.8205 -33.9139
rfingers 7.12502
rthumb -6.04091 296.192
lclavicle 2.98177e-015 -4.57205e-015
lhumerus 3.75499 4.53903 92.3028
lradius 83.7865
lwrist 75.2712
lhand -37.7753 -49.4918
lfingers 7.12502
lthumb -10.8225 -19.7906
rfemur 0 0 0
rtibia 0
rfoot 0 0
rtoes 0
lfemur -24.313 3.22754 -15.125
ltibia 22.1532
lfoot -12.2728 7.68206
ltoes -55.1576
201
root -0.487447 18.8925 3.98775 12.0218 -2.14242 0.505238
lowerback 36.9275 -2.62195 3.84121
upperback 8.84335 -2.00606 -1.26706
thorax -8.61101 -0.94171 -2.582
lowerneck -24.206 0.567709 2.64889
upperneck 24.4272 -0.407391 0.603429
head 12.0646 0.152171 -0.28431
rclavicle -4.47266e-015 4.57205e-015
rhumerus -8.32399 31.6889 -91.8815
rradius 84.0299
rwrist -50.0795
rhand -33.0959 -33.7648
rfingers 7.12502
rthumb -6.30679 296.349
lclavicle -4.47266e-015 4.57205e-015
lhumerus 2.06692 6.87304 91.0576
lradius 88.4887
lwrist 77.0758
lhand -37.7557 -50.543
lfingers 7.12502
lthumb -10.8037 -20.8409
rfemur 0 0 0
rtibia 0
rfoot 0 0
rtoes 0
lfemur -23.6106 3.53181 -15.0801
ltibia 22.1303
lfoot -12.2725 7.40587
ltoes -55.6336
202
root -0.518012 18.8865 3.99892 11.4797 -2.12945 0.571682
lowerback 37.0012 -2.17158 4.08524
upperback 8.38445 -1.36541 -1.34736
thorax -9.11026 -0.662193 -3.04356
lowerneck -23.7219 -0.0749954 2.32544
upperneck 25.2549 -1.31992 1.05059
head 12.2919 -0.210368 -0.217995
rclavicle 7.86442e-015 -9.21398e-015
rhumerus -7.29561 33.577 -92.9304
rradius 85.5487
rwrist -47.7882
rhand -32.6203 -32.5828
rfingers 7.12502
rthumb -5.84759 297.518
lclavicle 7.86442e-015 -9.21398e-015
lhumerus 0.159565 9.51138 89.6632
lradius 94.0622
lwrist 79.5034
lhand -37.7412 -48.9803
lfingers 7.12502
lthumb -10.7897 -19.2774
rfemur 0 0 0
rtibia 0
rfoot 0 0
rtoes 0
lfemur -22.9682 3.67422 -15.0724
ltibia 22.1287
lfoot -12.3678 7.30746
ltoes -55.9242
203
root -0.544744 18.8801 4.00919 11.038 -2.23084 0.660982
lowerback 37.11 -1.73886 4.31917
upperback 7.90499 -0.757766 -1.51922
thorax -9.64402 -0.403495 -3.5917
lowerneck -23.1285 -0.73465 2.02299
upperneck 25.9162 -2.26541 1.48771
head 12.4415 -0.587821 -0.162177
rclavicle -3.8763e-015 1.88845e-015
rhumerus -6.32621 36.4595 -93.5663
rradius 87.9003
rwrist -44.4036
rhand -28.8406 -33.1732
rfingers 7.12502
rthumb -2.19776 296.858
lclavicle -3.8763e-015 1.88845e-015
lhumerus -1.86035 12.5622 88.1975
lradius 100.127
lwrist 81.956
lhand -36.8142 -48.9476
lfingers 7.12502
lthumb -9.8954 -19.2002
rfemur 0 0 0
rtibia 0
rfoot 0 0
rtoes 0
lfemur -22.4145 3.67573 -15.0675
ltibia 22.1484
lfoot -12.5353 7.43171
ltoes -55.9361
204
root -0.566064 18.8733 4.0181 10.7118 -2.43423 0.783581
lowerback 37.1469 -1.34373 4.56345
upperback 7.50255 -0.210791 -1.81053
thorax -10.067 -0.173893 -4.25709
lowerneck -22.4899 -1.33882 1.79637
upperneck 26.2387 -3.15611 1.92087
head 12.4546 -0.940217 -0.107754
rclavicle -1.61016e-014 2.98177e-015
rhumerus -4.86843 40.3897 -93.4162
rradius 90.8475
rwrist -40.9875
rhand -28.113 -32.5239
rfingers 7.12502
rthumb -1.49509 297.502
lclavicle -1.61016e-014 2.98177e-015
lhumerus -3.92483 15.929 86.6456
lradius 106.416
lwrist 82.6731
lhand -35.8103 -47.937
lfingers 7.12502
lthumb -8.92672 -18.1459
rfemur 0 0 0
rtibia 0
rfoot 0 0
rtoes 0
lfemur -21.9916 3.62582 -15.1179
ltibia 22.1928
lfoot -12.7663 7.73959
ltoes -55.966
205
root -0.587458 18.8686 4.0289 10.5251 -2.70631 0.90335
lowerback 36.9199 -0.968444 4.71928
upperback 7.26173 0.254972 -2.18081
thorax -10.216 0.0269378 -4.93139
lowerneck -21.9203 -1.79792 1.8294
upperneck 26.2809 -3.89232 2.22809
head 12.3673 -1.22231 -0.115803
rclavicle -2.18663e-014 1.49089e-014
rhumerus -2.47662 45.0688 -92.1042
rradius 93.6033
rwrist -38.0899
rhand -28.141 -26.5883
rfingers 7.12502
rthumb -1.52208 303.437
lclavicle -2.18663e-014 1.49089e-014
lhumerus -5.86698 19.8178 84.8452
lradius 112.216
lwrist 82.7037
lhand -34.1213 -47.9119
lfingers 7.12502
lthumb -7.2967 -18.0577
rfemur 0 0 0
rtibia 0
rfoot 0 0
rtoes 0
lfemur -21.7068 3.61852 -15.1815
ltibia 22.2343
lfoot -12.9588 8.11979
ltoes -56.1155
206
root -0.612972 18.8667 4.04456 10.4545 -2.9557 1.03641
lowerback 36.4201 -0.58252 4.69905
upperback 7.15127 0.660637 -2.52378
thorax -10.1204 0.213047 -5.45486
lowerneck -21.5463 -2.18408 1.92532
upperneck 26.3263 -4.54564 2.50919
head 12.3205 -1.46431 -0.130501
rclavicle 1.50082e-014 4.57205e-015
rhumerus 0.50219 49.4605 -89.8701
rradius 95.9562
rwrist -35.2532
rhand -27.4769 -23.9697
rfingers 7.12502
rthumb -0.880714 306.052
lclavicle 1.50082e-014 4.57205e-015
lhumerus -7.1476 23.6038 83.6544
lradius 115.004
lwrist 79.8084
lhand -31.9823 -49.9567
lfingers 7.12502
lthumb -5.23166 -20.0412
rfemur 0 0 0
rtibia 0
rfoot 0 0
rtoes 0
lfemur -21.5272 3.79262 -15.2789
ltibia 22.2567
lfoot -13.055 8.33814
ltoes -56.2394
207
root -0.639915 18.8644 4.06211 10.3999 -3.00227 1.26401
lowerback 35.892 -0.200247 4.61428
upperback 7.03275 1.05156 -2.79611
thorax -10.0184 0.394986 -5.85813
lowerneck -21.1565 -2.61763 1.93378
upperneck 26.4862 -5.23739 2.78565
head 12.3196 -1.73018 -0.137595
rclavicle -6.55989e-015 6.75868e-015
rhumerus 3.37886 52.5966 -87.4981
rradius 98.1004
rwrist -32.9945
rhand -26.9496 -25.5465
rfingers 7.12502
rthumb -0.37145 304.474
lclavicle -6.55989e-015 6.75868e-015
lhumerus -8.77375 26.1853 82.76
lradius 117.398
lwrist 77.3797
lhand -31.6656 -51.0537
lfingers 7.12502
lthumb -4.92582 -21.131
rfemur 0 0 0
rtibia 0
rfoot 0 0
rtoes 0
lfemur -21.3937 3.97769 -15.479
ltibia 22.2593
lfoot -13.1113 8.31682
ltoes -56.3222
208
root -0.662613 18.8609 4.0771 10.2647 -2.81171 1.49299
lowerback 35.4304 0.162225 4.62561
upperback 6.93782 1.47429 -2.93744
thorax -10.0245 0.585331 -6.18738
lowerneck -20.6238 -3.07335 1.85881
upperneck 26.8224 -5.90036 2.94825
head 12.3592 -2.00365 -0.165946
rclavicle 2.84262e-014 -3.37934e-015
rhumerus 5.55462 54.7741 -85.5669
rradius 98.9806
rwrist -33.6663
rhand -28.8933 -25.6996
rfingers 7.12502
rthumb -2.24865 304.332
lclavicle 2.84262e-014 -3.37934e-015
lhumerus -11.031 26.784 81.9826
lradius 119.382
lwrist 78.7527
lhand -32.8155 -51.2447
lfingers 7.12502
lthumb -6.03608 -21.3507
rfemur 0 0 0
rtibia 0
rfoot 0 0
rtoes 0
lfemur -21.2159 4.05176 -15.6729
ltibia 22.2401
lfoot -13.099 8.11404
ltoes -56.4569
